simulation
nRows=31
nColumns=15
endheader
time  TH_x TH_y TH_z SC_y  SC_z  SC_x  AC_y  AC_z  AC_x  GH_y  GH_z  GH_yy  EL_x  PS_y
0.000000  0.000000  0.000000  0.000000  -36.223667  0.932994  1.034489  44.714156  4.058670  -0.973071  43.111187  5.861745  -27.869610  21.579712  109.358774
0.032323  0.000000  0.000000  0.000000  -36.337700  1.020221  1.242778  44.419510  4.118453  -1.165276  42.997484  5.127432  -27.328462  21.259645  108.846581
0.064646  0.000000  0.000000  0.000000  -36.407890  1.078762  1.363483  44.162240  4.175428  -1.331093  42.918262  4.588175  -27.069913  20.988077  108.708888
0.096970  0.000000  0.000000  0.000000  -36.441411  1.110898  1.415917  43.951196  4.221094  -1.464836  42.859907  4.232992  -27.035625  20.766251  108.849133
0.129293  0.000000  0.000000  0.000000  -36.445437  1.118910  1.419285  43.795515  4.247375  -1.561144  42.808802  4.050900  -27.167260  20.595412  109.170750
0.161616  0.000000  0.000000  0.000000  -36.427142  1.105079  1.392965  43.704574  4.246388  -1.615076  42.751334  4.030917  -27.406481  20.476804  109.577175
0.193939  0.000000  0.000000  0.000000  -36.393701  1.071687  1.351259  43.687623  4.214003  -1.618166  42.673887  4.162061  -27.694950  20.411671  109.971844
0.226263  0.000000  0.000000  0.000000  -36.352288  1.021013  1.300451  43.753558  4.151787  -1.556135  42.562845  4.433349  -27.974328  20.401258  110.258190
0.258586  0.000000  0.000000  0.000000  -36.310077  0.955339  1.272875  43.912640  4.043374  -1.433411  42.404594  4.833799  -28.186278  20.446809  110.339651
0.290909  0.000000  0.000000  0.000000  -36.274242  0.876946  1.274012  44.173599  3.890894  -1.234588  42.185518  5.352428  -28.272463  20.549567  110.119662
0.323232  0.000000  0.000000  0.000000  -36.251958  0.788114  1.328611  44.545937  3.682885  -0.957532  41.892003  5.978255  -28.174544  20.710779  109.501657
0.355556  0.000000  0.000000  0.000000  -36.249760  0.691526  1.443043  45.036032  3.420948  -0.588687  41.518846  6.701481  -27.846699  20.930721  108.398711
0.387879  0.000000  0.000000  0.000000  -36.263780  0.596404  1.614837  45.618239  3.122932  -0.151208  41.197856  7.531609  -27.446935  21.193945  106.880847
0.420202  0.000000  0.000000  0.000000  -36.281686  0.517292  1.815105  46.240363  2.833894  0.314190  41.172312  8.493842  -27.299086  21.472210  105.145783
0.452525  0.000000  0.000000  0.000000  -36.290900  0.468886  2.016813  46.850002  2.598410  0.762582  41.688726  9.613837  -27.731802  21.736900  103.394944
0.484848  0.000000  0.000000  0.000000  -36.278845  0.465883  2.194214  47.395286  2.460716  1.146086  42.993613  10.917254  -29.073732  21.959401  101.829752
0.517172  0.000000  0.000000  0.000000  -36.233148  0.522759  2.319015  47.825566  2.466952  1.417917  45.327452  12.429063  -31.646384  22.111581  100.649075
0.549495  0.000000  0.000000  0.000000  -36.151113  0.643457  2.389086  48.132026  2.623743  1.569702  48.645587  14.141691  -35.433931  22.188057  99.930888
0.581818  0.000000  0.000000  0.000000  -36.043710  0.817059  2.446375  48.364608  2.876071  1.644808  52.500771  16.001616  -39.944243  22.215572  99.582479
0.614141  0.000000  0.000000  0.000000  -35.922939  1.031520  2.531048  48.577256  3.167817  1.695161  56.415351  17.951846  -44.649217  22.223296  99.498247
0.646465  0.000000  0.000000  0.000000  -35.800801  1.274797  2.686613  48.823763  3.440232  1.771407  59.911675  19.935391  -49.020752  22.240395  99.572587
0.678788  0.000000  0.000000  0.000000  -35.689292  1.534857  2.949525  49.157275  3.639802  1.929789  62.512625  21.895312  -52.531322  22.295996  99.699968
0.711111  0.000000  0.000000  0.000000  -35.597962  1.803849  3.349687  49.608418  3.735098  2.199838  63.949940  23.795907  -54.878952  22.402314  99.802641
0.743434  0.000000  0.000000  0.000000  -35.530219  2.084430  3.874946  50.151071  3.769627  2.558137  64.480306  25.654844  -56.328558  22.529068  99.872682
0.775758  0.000000  0.000000  0.000000  -35.488522  2.380882  4.518212  50.751068  3.789204  2.965269  64.441570  27.498044  -57.232707  22.639405  99.912965
0.808081  0.000000  0.000000  0.000000  -35.475330  2.697488  5.266886  51.374550  3.843308  3.384753  64.171583  29.351426  -57.943965  22.696470  99.926361
0.840404  0.000000  0.000000  0.000000  -35.493101  3.038529  6.110475  51.988991  3.979379  3.777511  64.008192  31.240911  -58.814900  22.663413  99.915746
0.872727  0.000000  0.000000  0.000000  -35.543574  3.406969  7.033961  52.568864  4.238278  4.114652  64.222711  33.184136  -60.125106  22.513425  99.883317
0.905051  0.000000  0.000000  0.000000  -35.625109  3.799586  8.043635  53.114567  4.597582  4.396451  64.774705  35.159922  -61.812279  22.266773  99.828113
0.937374  0.000000  0.000000  0.000000  -35.735083  4.211351  9.138099  53.632816  5.027890  4.640411  65.532514  37.135734  -63.714063  21.957498  99.748252
0.969697  0.000000  0.000000  0.000000  -35.870868  4.637233  10.327706  54.129716  5.490940  4.857292  66.364468  39.079033  -65.668091  21.619641  99.641846
